<svg xmlns="http://www.w3.org/2000/svg" viewBox="88.900 34.488 39.161 39.161">
<path transform="matrix(1,0,0,-1,122.1254,63.448999)" d="M0 0C-.99-1.68-2.31-3.14-3.97-4.37-6.52-6.26-9.67-7.2-13.44-7.2-16.51-7.2-19.26-6.51-21.69-5.13-23.93-3.86-25.72-2.11-27.06 .12L-21.44 2.88C-21.01 2.08-20.44 1.36-19.74 .73-18.03-.83-15.93-1.6-13.44-1.6-9.87-1.6-7.34-.11-5.87 2.88Z" fill="#CA353D"/>
<path transform="matrix(1,0,0,-1,99.5954,51.178998)" d="M0 0C.31 2.48 1.28 4.45 2.91 5.91 4.54 7.37 6.5 8.1 8.8 8.1 11.32 8.1 13.44 7.36 15.15 5.88 16.86 4.41 17.73 2.44 17.77 0ZM22.72 6.14C21.4 8.53 19.56 10.39 17.19 11.71 14.82 13.03 12.12 13.69 9.09 13.69 5.94 13.69 3.15 13.01 .73 11.65-1.7 10.29-3.59 8.36-4.93 5.85-6.27 3.35-6.94 .44-6.94-2.86-6.94-3.72-6.89-4.56-6.8-5.36H24.47C24.63-4.39 24.71-3.31 24.71-2.1 24.71 1.01 24.04 3.76 22.72 6.14" fill="#FFFFFF"/>
</svg>